<svg xmlns="http://www.w3.org/2000/svg" viewBox="0 0 138 138" fill="none"><path fill="#454F42" d="M69 78.0231C73.9833 78.0231 78.0231 73.9833 78.0231 69C78.0231 64.0167 73.9833 59.9769 69 59.9769C64.0167 59.9769 59.9769 64.0167 59.9769 69C59.9769 73.9833 64.0167 78.0231 69 78.0231Z"/><path fill="#454F42" d="M69 0C30.8925 0 0 30.8925 0 69C0 107.107 30.8925 138 69 138C107.107 138 138 107.107 138 69C138 30.8925 107.107 0 69 0ZM42.6914 17.1608C50.5897 13.1456 59.5305 10.8811 69 10.8811C69.5561 10.8811 70.1073 10.8886 70.6585 10.9035C71.5738 10.9285 72.2022 13.2029 72.0651 15.9538L71.3618 30.1119C71.2246 32.8627 70.641 35.0649 70.0574 35.0474C69.7058 35.0374 69.3541 35.0325 69 35.0325C64.0196 35.0325 59.2886 36.1049 55.0264 38.0302C52.515 39.1649 49.5098 38.4891 48.1082 36.1173L40.8857 23.9045C39.4841 21.5327 40.2348 18.4103 42.6914 17.1608ZM39.8682 43.1328L29.1991 33.8004C27.1242 31.9874 26.9097 28.8275 28.9023 26.9271C28.9497 26.8822 28.9946 26.8398 29.0445 26.795C31.0446 24.8996 34.1795 25.2861 35.8704 27.4583L44.5843 38.6412C46.2777 40.8134 46.6717 43.3523 45.5594 44.4122C44.4446 45.4771 41.9432 44.9459 39.8682 43.1328ZM44.5843 69C44.5843 55.5152 55.5152 44.5843 69 44.5843C82.4848 44.5843 93.4157 55.5152 93.4157 69C93.4157 82.4848 82.4848 93.4157 69 93.4157C55.5152 93.4157 44.5843 82.4848 44.5843 69ZM95.1939 120.897C87.323 124.877 78.4221 127.119 69 127.119C68.3815 127.119 67.7655 127.109 67.152 127.091C66.132 127.059 65.4262 124.775 65.5758 122.024L66.3489 107.868C66.5011 105.117 67.152 102.928 67.8104 102.95C68.2044 102.963 68.601 102.97 69 102.97C73.5739 102.97 77.9333 102.067 81.9161 100.431C84.465 99.3837 87.5899 100.072 89.0912 102.381L96.825 114.278C98.3263 116.584 97.6529 119.652 95.1939 120.897ZM108.783 111.37C106.873 113.165 103.783 112.744 102.042 110.609L93.089 99.6182C91.3482 97.4834 90.9043 95.0094 92.0042 93.9943C93.1065 92.9793 95.6029 93.5479 97.6754 95.3635L108.349 104.701C110.424 106.514 110.696 109.574 108.783 111.37Z"/></svg>
